<svg xmlns="http://www.w3.org/2000/svg" version="1.1" xmlns:xlink="http://www.w3.org/1999/xlink" xmlns:svgjs="http://svgjs.dev/svgjs" width="2000" height="484" viewBox="0 0 2000 484"><g transform="matrix(1,0,0,1,-1.2121212121212466,-1.9121176355521357)"><svg viewBox="0 0 396 96" data-background-color="#ffffff" preserveAspectRatio="xMidYMid meet" height="484" width="2000" xmlns="http://www.w3.org/2000/svg" xmlns:xlink="http://www.w3.org/1999/xlink"><g id="tight-bounds" transform="matrix(1,0,0,1,0.2400000000000091,0.37926300209298347)"><svg viewBox="0 0 395.52 95.24147399581403" height="95.24147399581403" width="395.52"><g><svg viewBox="0 0 550.813415359396 132.63622971151253" height="95.24147399581403" width="395.52"><g transform="matrix(1,0,0,1,155.29341535939602,18.33105634942033)"><svg viewBox="0 0 395.52 95.97411701267187" height="95.97411701267187" width="395.52"><g id="textblocktransform"><svg viewBox="0 0 395.52 95.97411701267187" height="95.97411701267187" width="395.52" id="textblock"><g><svg viewBox="0 0 395.52 95.97411701267187" height="95.97411701267187" width="395.52"><g transform="matrix(1,0,0,1,0,0)"><svg width="395.52" viewBox="2.25 -34.86 144.860416666664 35.15" height="95.97411701267187" data-palette-color="#000000"><path d="M10.52 0L10.52 0 2.25 0 2.25-34.86 10.45-34.86Q15.06-34.86 17.14-33.45 19.21-32.03 19.34-28.76L19.34-28.76Q19.48-25.12 19.34-22.53L19.34-22.53Q19.17-18.92 15.14-17.97L15.14-17.97 15.14-17.14Q17.31-16.65 18.31-15.54 19.31-14.43 19.38-12.5L19.38-12.5Q19.51-10.79 19.51-9.31 19.51-7.84 19.38-6.1L19.38-6.1Q19.26-2.86 17.18-1.43 15.09 0 10.52 0ZM10.45-31.74L5.64-31.74 5.64-19.14 10.4-19.14Q13.23-19.14 14.53-20 15.82-20.85 15.94-22.63L15.94-22.63Q16.26-25.78 15.94-28.93L15.94-28.93Q15.82-30.37 14.53-31.05 13.23-31.74 10.45-31.74L10.45-31.74ZM10.11-16.02L5.64-16.02 5.64-3.13 10.52-3.13Q13.28-3.13 14.6-3.87 15.92-4.61 15.99-6.15L15.99-6.15Q16.24-9.25 15.99-12.35L15.99-12.35Q15.92-14.36 14.54-15.19 13.16-16.02 10.11-16.02L10.11-16.02ZM29.05 0.27L29.05 0.27Q26.07 0.27 24.64-0.9 23.22-2.08 22.97-4.57L22.97-4.57Q22.95-5.05 22.91-5.54 22.87-6.03 22.92-6.49L22.92-6.49Q23.09-8.67 24.29-10.14 25.49-11.62 28.83-12.84L28.83-12.84Q30.2-13.33 31.71-13.72 33.23-14.11 34.71-14.48L34.71-14.48 34.71-18.99Q34.71-20.19 33.81-20.76 32.91-21.34 30.66-21.34L30.66-21.34Q28.71-21.34 27.7-20.85 26.68-20.36 26.58-19.07L26.58-19.07Q26.54-18.46 26.54-17.32 26.54-16.19 26.58-15.41L26.58-15.41 23.53-15.41Q23.48-16.02 23.43-16.99 23.39-17.97 23.46-18.73L23.46-18.73Q23.58-21.56 25.3-22.81 27.02-24.07 30.78-24.07L30.78-24.07Q34.71-24.07 36.24-22.71 37.77-21.34 37.79-18.21L37.79-18.21 37.79 0 34.71 0 34.71-2.25 34.03-2.25Q33.42-1.03 32.29-0.38 31.15 0.27 29.05 0.27ZM29.83-2.37L29.83-2.37Q33.35-2.37 34.69-4.47L34.69-4.47 34.69-11.87Q33.52-11.62 32.29-11.29 31.05-10.96 29.39-10.4L29.39-10.4Q27.41-9.67 26.76-8.72 26.1-7.76 26-6.49L26-6.49Q26.02-6.13 26.04-5.7 26.05-5.27 26.1-4.81L26.1-4.81Q26.27-3.64 27.27-3 28.27-2.37 29.83-2.37ZM45.43-19.19L45.43 0 42.28 0 42.28-23.75 45.43-23.75 45.43-21.53 46.19-21.53Q46.94-22.75 48.18-23.41 49.41-24.07 51.29-24.07L51.29-24.07Q54.05-24.07 55.39-22.86 56.73-21.66 56.73-18.82L56.73-18.82 56.73 0 53.61 0 53.61-19.09Q53.61-20.31 52.84-20.86 52.07-21.41 50.36-21.41L50.36-21.41Q48.65-21.41 47.36-20.83 46.06-20.24 45.43-19.19L45.43-19.19ZM64.23-7.89L64.23 0 61.17 0 61.17-31.69 64.18-31.69 64.18-23.88 63.91-13.53 64.74-13.53 67.11-18.14 70.77-23.75 74.09-23.75 68.03-14.18 75.51 0 72.21 0 66.18-10.5 64.23-7.89ZM92.54-3.13L92.54 0 77.87 0 77.87-34.86 92.54-34.86 92.54-31.74 81.26-31.74 81.26-19.14 91.79-19.14 91.79-16.02 81.26-16.02 81.26-3.13 92.54-3.13ZM101.28 0.27L101.28 0.27Q98.3 0.27 96.87-0.9 95.45-2.08 95.2-4.57L95.2-4.57Q95.18-5.05 95.14-5.54 95.1-6.03 95.15-6.49L95.15-6.49Q95.32-8.67 96.52-10.14 97.72-11.62 101.06-12.84L101.06-12.84Q102.43-13.33 103.94-13.72 105.46-14.11 106.95-14.48L106.95-14.48 106.95-18.99Q106.95-20.19 106.04-20.76 105.14-21.34 102.89-21.34L102.89-21.34Q100.94-21.34 99.93-20.85 98.91-20.36 98.82-19.07L98.82-19.07Q98.77-18.46 98.77-17.32 98.77-16.19 98.82-15.41L98.82-15.41 95.76-15.41Q95.72-16.02 95.67-16.99 95.62-17.97 95.69-18.73L95.69-18.73Q95.81-21.56 97.53-22.81 99.26-24.07 103.01-24.07L103.01-24.07Q106.95-24.07 108.47-22.71 110-21.34 110.02-18.21L110.02-18.21 110.02 0 106.95 0 106.95-2.25 106.26-2.25Q105.65-1.03 104.52-0.38 103.38 0.27 101.28 0.27ZM102.06-2.37L102.06-2.37Q105.58-2.37 106.92-4.47L106.92-4.47 106.92-11.87Q105.75-11.62 104.52-11.29 103.28-10.96 101.62-10.4L101.62-10.4Q99.65-9.67 98.99-8.72 98.33-7.76 98.23-6.49L98.23-6.49Q98.25-6.13 98.27-5.7 98.28-5.27 98.33-4.81L98.33-4.81Q98.5-3.64 99.5-3 100.5-2.37 102.06-2.37ZM121.05 0.29L121.05 0.29Q117.12 0.29 115.6-0.98 114.07-2.25 113.95-5.13L113.95-5.13Q113.9-5.88 113.89-6.82 113.88-7.76 113.97-8.47L113.97-8.47 116.83-8.47Q116.78-7.35 116.79-6.41 116.81-5.47 116.83-4.81L116.83-4.81Q116.86-3.47 117.77-2.95 118.69-2.44 121.05-2.44L121.05-2.44Q123.47-2.44 124.46-2.95 125.45-3.47 125.52-4.81L125.52-4.81Q125.6-5.64 125.62-6.04 125.64-6.45 125.62-7.2L125.62-7.2Q125.55-8.45 124.96-9.13 124.37-9.81 122.42-10.11L122.42-10.11 119.57-10.77Q117.37-11.23 116.17-11.94 114.98-12.65 114.49-13.78 114-14.92 113.9-16.65L113.9-16.65Q113.83-17.53 114.02-18.58L114.02-18.58Q114.07-21.53 115.62-22.8 117.17-24.07 121.27-24.07L121.27-24.07Q125.2-24.07 126.73-22.83 128.26-21.58 128.4-18.73L128.4-18.73Q128.4-17.99 128.39-17.05 128.38-16.11 128.31-15.41L128.31-15.41 125.35-15.41Q125.47-16.26 125.46-17.36 125.45-18.46 125.4-19.07L125.4-19.07Q125.38-20.36 124.51-20.85 123.64-21.34 121.27-21.34L121.27-21.34Q118.88-21.34 118.01-20.85 117.15-20.36 117.05-19.07L117.05-19.07Q117.03-18.46 116.98-18.05 116.93-17.65 116.95-16.94L116.95-16.94Q117.03-16.09 117.21-15.43 117.39-14.77 118.04-14.34 118.69-13.92 120.15-13.7L120.15-13.7 122.89-13.13Q125.86-12.52 127.23-11.24 128.6-9.96 128.6-7.37L128.6-7.37Q128.6-6.84 128.59-6.23 128.57-5.62 128.53-5.05L128.53-5.05Q128.35-2.2 126.73-0.95 125.11 0.29 121.05 0.29ZM139.8 0.29L139.8 0.29Q135.77 0.29 134.05-0.98 132.33-2.25 132.21-5.13L132.21-5.13Q132.11-6.93 132.07-9.38 132.04-11.82 132.07-14.28 132.11-16.75 132.21-18.58L132.21-18.58Q132.33-21.53 134.1-22.8 135.87-24.07 139.8-24.07L139.8-24.07Q143.51-24.07 145.17-22.83 146.83-21.58 147-18.73L147-18.73Q147.05-17.87 147.1-15.75 147.15-13.62 146.96-11.23L146.96-11.23 135.26-11.23Q135.26-9.69 135.29-8.11 135.31-6.52 135.38-4.81L135.38-4.81Q135.41-3.47 136.41-2.95 137.41-2.44 139.7-2.44L139.7-2.44Q141.97-2.44 142.9-2.95 143.83-3.47 143.93-4.81L143.93-4.81Q144-6.15 143.93-8.47L143.93-8.47 146.96-8.47Q147.08-7.76 147.07-6.82 147.05-5.88 147-5.13L147-5.13Q146.83-2.25 145.26-0.98 143.68 0.29 139.8 0.29ZM135.26-13.82L135.26-13.82 143.98-13.82Q144.03-15.48 144.03-16.99 144.03-18.51 143.93-19.07L143.93-19.07Q143.83-20.29 142.88-20.81 141.93-21.34 139.8-21.34L139.8-21.34Q137.43-21.34 136.42-20.81 135.41-20.29 135.38-19.07L135.38-19.07Q135.31-17.65 135.27-16.36 135.24-15.06 135.26-13.82Z" opacity="1" transform="matrix(1,0,0,1,0,0)" fill="#000000" class="wordmark-text-0" data-fill-palette-color="primary" id="text-0"></path></svg></g></svg></g></svg></g></svg></g><g><svg viewBox="0 0 132.6362297115125 132.63622971151253" height="132.63622971151253" width="132.6362297115125"><g><svg></svg></g><g id="icon-0"><svg viewBox="0 0 132.6362297115125 132.63622971151253" height="132.63622971151253" width="132.6362297115125"><g><path transform="scale(1.32636,1.32636)" d="M30 100c-16.569 0-30-13.431-30-30v-40c0-16.569 13.431-30 30-30h40c16.569 0 30 13.431 30 30v40c0 16.569-13.431 30-30 30z" fill="#1459a3" fill-rule="nonzero" stroke="none" stroke-width="1" stroke-linecap="butt" stroke-linejoin="miter" stroke-miterlimit="10" stroke-dasharray="" stroke-dashoffset="0" font-family="none" font-weight="none" font-size="none" text-anchor="none" style="mix-blend-mode: normal" data-fill-palette-color="accent"></path></g><g transform="matrix(1,0,0,1,26.5272459423025,45.312515156344034)"><svg viewBox="0 0 79.5817378269075 42.011199398824466" height="42.011199398824466" width="79.5817378269075"><g><svg xmlns="http://www.w3.org/2000/svg" xmlns:xlink="http://www.w3.org/1999/xlink" version="1.1" x="0" y="0" viewBox="0 0.001 100 52.79" enable-background="new 0 0 100 52.792" xml:space="preserve" id="dxe-0" width="79.5817378269075" height="42.011199398824466" class="icon-dxe-0" data-fill-palette-color="quaternary"><g fill="#ffffff" data-fill-palette-color="quaternary"><g fill="#ffffff" data-fill-palette-color="quaternary"><g fill="#ffffff" data-fill-palette-color="quaternary"><path fill="#ffffff" d="M9.22 15.981V11.361C9.95 11.561 10.48 11.771 10.79 11.991 11.32 12.371 11.59 12.931 11.59 13.661 11.59 14.131 11.49 14.531 11.3 14.891 10.91 15.571 10.22 15.941 9.22 15.981" data-fill-palette-color="quaternary"></path><path fill="#ffffff" d="M8.39 11.151V15.941C7.39 15.861 6.72 15.491 6.35 14.821 6.14 14.451 6.02 13.871 5.97 13.071H4.41C4.41 14.071 4.58 14.871 4.91 15.471 5.52 16.561 6.68 17.161 8.39 17.281V18.981H9.22V17.281C10.28 17.161 11.09 16.921 11.66 16.561 12.67 15.901 13.18 14.791 13.18 13.231 13.18 12.151 12.78 11.341 11.99 10.791 11.5 10.461 10.58 10.101 9.22 9.721V5.441C10.03 5.471 10.62 5.781 10.99 6.371 11.19 6.691 11.31 7.071 11.35 7.521H12.89C12.86 6.531 12.53 5.731 11.91 5.121 11.28 4.521 10.39 4.171 9.22 4.091V2.941H8.39V4.111C7.21 4.121 6.29 4.481 5.64 5.201 4.99 5.911 4.66 6.721 4.66 7.611 4.66 8.601 4.96 9.381 5.57 9.951 6.18 10.511 7.11 10.911 8.39 11.151M0 0.001H100V52.791H0zM66.19 26.401C66.19 15.621 58.94 6.891 50 6.891S33.81 15.621 33.81 26.401C33.81 37.171 41.06 45.901 50 45.901S66.19 37.171 66.19 26.401" data-fill-palette-color="quaternary"></path><path fill="#ffffff" d="M8.39 5.421V9.551C7.73 9.421 7.21 9.191 6.82 8.861 6.44 8.541 6.24 8.081 6.24 7.501 6.24 7.021 6.41 6.561 6.73 6.121 7.06 5.681 7.61 5.451 8.39 5.421" data-fill-palette-color="quaternary"></path></g></g></g></svg></g></svg></g></svg></g></svg></g></svg></g><defs></defs></svg><rect width="395.52" height="95.24147399581403" fill="none" stroke="none" visibility="hidden"></rect></g></svg></g></svg>